{"glyphs":{" ":{"ha":0,"x_min":0,"x_max":0,"o":""},"A":{"ha":1242,"x_min":0,"x_max":0,"o":"m 804 485 b 710 346 742 426 710 381 b 804 206 710 311 742 265 b 932 61 868 149 883 132 b 1003 -197 978 -7 1001 -93 l 1096 -197 b 1103 -204 1100 -197 1103 -200 l 1103 -217 b 1096 -224 1103 -221 1100 -224 l 147 -224 b 139 -217 142 -224 139 -221 l 139 -204 b 147 -197 139 -200 142 -197 l 244 -197 b 318 94 246 -69 269 28 b 381 168 342 126 363 151 b 450 225 397 183 421 203 b 450 467 568 314 568 376 b 342 564 404 500 385 514 b 293 642 321 589 304 615 b 244 888 269 694 246 783 l 147 888 b 139 896 142 888 139 890 l 139 907 b 147 915 139 913 142 915 l 1096 915 b 1103 907 1100 915 1103 913 l 1103 896 b 1096 888 1103 890 1100 888 l 1003 888 b 932 632 1001 783 979 699 b 804 485 881 558 868 546 "},"B":{"ha":1661,"x_min":0,"x_max":0,"o":"m 1311 915 b 1461 854 1369 915 1419 894 b 1522 704 1501 813 1522 763 l 1522 189 b 1461 40 1522 131 1501 81 b 1311 -22 1419 -1 1369 -22 l 879 -22 b 967 -125 899 -40 928 -75 b 1078 -262 1001 -169 1038 -215 b 1076 -274 1081 -267 1081 -269 l 1067 -281 b 1057 -281 1063 -285 1060 -285 l 946 -142 b 844 -31 893 -74 860 -37 l 844 -290 b 836 -297 844 -294 842 -297 l 825 -297 b 818 -290 821 -297 818 -294 l 818 -31 b 729 -126 803 -36 774 -68 b 717 -142 724 -133 719 -137 l 604 -281 b 594 -281 601 -285 599 -285 l 585 -274 b 585 -262 581 -269 581 -267 l 696 -125 b 783 -22 736 -71 765 -37 l 350 -22 b 201 40 292 -22 242 -1 b 139 189 160 81 139 131 l 139 704 b 201 854 139 763 160 813 b 350 915 242 894 292 915 "},"C":{"ha":1661,"x_min":0,"x_max":0,"o":"m 689 -22 l 476 -294 b 465 -296 472 -299 469 -299 l 456 -287 b 456 -278 451 -285 451 -282 l 656 -22 l 350 -22 b 201 40 293 -22 243 -1 b 139 189 160 81 139 131 l 139 704 b 201 854 139 763 160 813 b 350 915 243 894 293 915 l 1311 915 b 1461 854 1369 915 1419 894 b 1522 704 1501 813 1522 763 l 1522 189 b 1461 40 1522 131 1501 81 b 1311 -22 1419 -1 1369 -22 l 1007 -22 l 1207 -278 b 1206 -287 1211 -282 1210 -285 l 1197 -296 b 1186 -294 1193 -299 1190 -299 l 972 -22 m 453 275 b 399 143 385 275 350 190 b 531 197 446 94 531 129 b 513 247 531 215 525 232 l 654 414 b 694 403 667 407 679 403 b 754 432 718 403 739 413 l 875 365 b 871 339 872 357 871 349 b 1004 285 871 271 956 236 b 1004 393 1035 315 1033 364 l 1175 626 b 1210 618 1185 621 1196 618 b 1288 696 1253 618 1288 653 b 1210 774 1288 739 1253 774 b 1154 642 1142 774 1107 689 l 983 408 b 949 417 972 414 961 417 b 888 388 922 417 903 407 l 767 456 b 772 482 771 467 772 475 b 694 560 772 525 738 560 b 615 482 651 560 615 525 b 635 432 615 461 622 444 l 492 264 b 453 275 479 271 467 275 "},"D":{"ha":1428,"x_min":0,"x_max":0,"o":"m 1219 289 b 1285 213 1257 283 1285 251 b 1206 133 1285 168 1250 133 b 1128 213 1163 133 1128 168 b 1193 289 1128 251 1156 283 l 1193 431 l 721 158 b 707 158 715 156 711 156 l 154 476 b 154 526 133 488 133 514 l 685 831 b 742 831 704 840 724 840 l 1275 526 b 1274 476 1293 515 1294 488 l 1219 446 m 693 135 b 735 135 708 128 722 128 l 1046 314 l 1046 75 b 978 -64 1046 19 1024 -26 b 813 -133 932 -101 878 -124 b 617 -132 747 -142 682 -142 b 451 -62 551 -122 497 -100 b 383 76 406 -25 383 22 l 383 314 "},"E":{"ha":1276,"x_min":0,"x_max":0,"o":"m 467 492 l 165 793 l 165 547 b 158 540 165 543 163 540 l 147 540 b 139 547 142 540 139 543 l 139 797 b 181 839 139 819 158 839 l 431 839 b 438 831 435 839 438 836 l 438 819 b 431 811 438 814 435 811 l 185 811 l 486 511 b 486 500 490 507 490 504 l 478 492 b 467 492 474 488 471 488 m 792 511 l 1093 811 l 847 811 b 840 819 843 811 840 814 l 840 831 b 847 839 840 836 843 839 l 1097 839 b 1138 797 1119 839 1138 819 l 1138 547 b 1131 540 1138 543 1135 540 l 1119 540 b 1111 547 1114 540 1111 543 l 1111 793 l 810 492 b 800 492 807 488 804 488 l 792 500 b 792 511 788 504 788 507 m 486 167 l 185 -133 l 431 -133 b 438 -142 435 -133 438 -136 l 438 -153 b 431 -160 438 -157 435 -160 l 181 -160 b 139 -119 158 -160 139 -142 l 139 131 b 147 138 139 135 142 138 l 158 138 b 165 131 163 138 165 135 l 165 -115 l 467 186 b 478 186 471 190 474 190 l 486 178 b 486 167 490 174 490 171 m 810 186 l 1111 -115 l 1111 131 b 1119 138 1111 135 1114 138 l 1131 138 b 1138 131 1135 138 1138 135 l 1138 -119 b 1097 -160 1138 -142 1119 -160 l 847 -160 b 840 -153 843 -160 840 -157 l 840 -142 b 847 -133 840 -136 843 -133 l 1093 -133 l 792 167 b 792 178 788 171 788 174 l 800 186 b 810 186 804 190 807 190 "},"F":{"ha":1264,"x_min":0,"x_max":0,"o":"m 165 822 l 467 521 l 467 767 b 474 774 467 771 469 774 l 486 774 b 493 767 490 774 493 771 l 493 517 b 451 476 493 494 475 476 l 203 476 b 194 483 197 476 194 479 l 194 494 b 203 503 194 500 197 503 l 447 503 l 147 804 b 147 814 143 807 143 810 l 156 822 b 165 822 158 826 161 826 m 1128 804 l 826 503 l 1071 503 b 1079 494 1076 503 1079 500 l 1079 483 b 1071 476 1079 479 1076 476 l 822 476 b 781 517 799 476 781 494 l 781 767 b 788 774 781 771 783 774 l 800 774 b 807 767 804 774 807 771 l 807 521 l 1108 822 b 1118 822 1113 826 1115 826 l 1128 814 b 1128 804 1131 810 1131 807 m 1108 -158 l 807 143 l 807 -103 b 800 -110 807 -107 804 -110 l 788 -110 b 781 -103 783 -110 781 -107 l 781 147 b 822 188 781 169 799 188 b 947 189 850 188 892 188 l 1071 189 b 1079 181 1076 189 1079 186 l 1079 169 b 1071 161 1079 164 1076 161 l 826 161 l 1128 -139 b 1128 -150 1131 -143 1131 -146 l 1118 -158 b 1108 -158 1115 -162 1113 -162 m 147 -139 l 447 161 l 203 161 b 194 169 197 161 194 164 l 194 181 b 203 188 194 185 197 188 l 451 188 b 493 147 475 188 493 169 l 493 -103 b 486 -110 493 -107 490 -110 l 474 -110 b 467 -103 469 -110 467 -107 l 467 143 l 165 -158 b 156 -158 161 -162 158 -162 l 147 -150 b 147 -139 143 -146 143 -143 "},"G":{"ha":1322,"x_min":0,"x_max":0,"o":"m 1025 621 b 1183 464 1113 621 1183 551 l 1183 357 l 674 357 l 674 596 l 647 596 l 647 357 l 139 357 l 139 464 b 297 621 139 551 210 621 l 447 621 b 378 665 421 631 399 646 b 490 938 278 765 349 938 b 661 789 575 938 638 874 b 831 938 683 874 747 938 b 944 665 974 938 1044 765 b 875 621 924 644 900 631 m 647 636 b 646 724 647 674 647 703 b 629 799 644 744 639 769 b 585 872 619 828 604 853 b 490 911 558 899 528 911 b 396 683 374 911 311 768 b 476 642 415 665 442 651 b 556 625 510 632 536 626 b 647 622 575 624 606 624 m 738 872 b 675 715 697 832 676 754 b 674 622 674 696 674 665 b 767 625 717 624 747 624 b 847 642 786 626 813 632 b 925 683 881 651 907 665 b 954 829 967 726 976 775 b 831 911 931 883 890 911 b 738 872 793 911 763 899 m 647 -250 l 383 -250 b 225 -93 296 -250 225 -181 l 225 331 l 647 331 m 1097 331 l 1097 -93 b 939 -250 1097 -181 1026 -250 l 674 -250 l 674 331 "},"H":{"ha":1390,"x_min":0,"x_max":0,"o":"m 1201 906 b 1251 865 1228 911 1251 892 l 1251 83 b 1190 -25 1251 42 1231 6 b 1050 -67 1151 -53 1104 -67 b 908 -25 996 -67 949 -53 b 849 83 868 4 849 40 b 908 190 849 126 868 161 b 1050 233 949 219 996 233 b 1190 190 1104 233 1151 219 b 1225 157 1203 181 1215 169 l 1225 865 b 1207 881 1225 878 1219 882 l 554 744 b 542 729 546 743 542 738 l 542 -64 b 482 -172 542 -106 522 -142 b 340 -215 442 -201 394 -215 b 200 -172 286 -215 239 -201 b 139 -64 160 -143 139 -107 b 200 43 139 -21 160 14 b 340 86 239 72 286 86 b 482 43 394 86 442 72 b 515 10 496 33 507 22 l 515 729 b 549 769 515 751 526 765 "},"I":{"ha":1086,"x_min":0,"x_max":0,"o":"m 944 535 b 944 525 949 531 949 528 l 936 515 b 926 515 932 513 929 513 l 571 881 b 542 874 560 892 542 890 l 542 -35 b 481 -143 542 -76 521 -112 b 340 -185 442 -171 394 -185 b 200 -143 286 -185 239 -171 b 200 72 118 -83 118 13 b 340 115 239 101 286 115 b 481 72 394 115 442 101 b 515 40 496 63 507 51 l 515 874 b 590 899 515 913 558 928 "},"J":{"ha":1411,"x_min":0,"x_max":0,"o":"m 1269 535 b 1269 525 1274 531 1274 528 l 1261 515 b 1250 515 1257 513 1254 513 l 896 881 b 867 874 885 892 867 890 l 867 -35 b 806 -143 867 -76 846 -112 b 665 -185 767 -171 719 -185 b 524 -143 611 -185 564 -171 b 524 72 444 -83 444 13 b 665 115 564 101 611 115 b 806 72 719 115 767 101 b 840 40 818 64 829 53 l 840 874 b 914 899 840 913 885 928 m 146 757 b 139 764 142 757 139 760 l 139 776 b 146 783 139 781 142 783 l 589 783 b 596 776 593 783 596 781 l 596 764 b 589 757 596 760 593 757 m 146 542 b 139 549 142 542 139 544 l 139 561 b 146 568 139 565 142 568 l 589 568 b 596 561 593 568 596 565 l 596 549 b 589 542 596 544 593 542 m 596 332 b 589 324 596 326 593 324 l 146 324 b 139 332 142 324 139 326 l 139 343 b 146 350 139 347 142 350 l 589 350 b 596 343 593 350 596 347 "},"K":{"ha":1381,"x_min":0,"x_max":0,"o":"m 1235 569 b 1218 501 1257 547 1247 511 b 1089 493 1175 488 1132 485 l 879 283 b 904 -12 928 182 936 83 b 836 -28 894 -42 858 -50 l 586 221 l 165 -203 b 156 -203 163 -207 160 -207 l 147 -194 b 147 -185 143 -190 143 -187 l 568 240 l 318 489 b 335 557 297 511 306 547 b 631 533 429 590 528 582 l 839 742 b 847 872 832 788 835 831 b 917 888 857 901 894 910 "},"L":{"ha":1615,"x_min":0,"x_max":0,"o":"m 1290 869 b 1422 815 1342 869 1385 851 b 1476 682 1458 778 1476 733 l 1476 3 b 1422 -129 1476 -49 1458 -93 b 1290 -183 1385 -165 1342 -183 l 325 -183 b 193 -129 274 -183 229 -165 b 139 3 157 -93 139 -49 l 139 682 b 194 815 139 733 157 778 b 325 869 231 851 274 869 m 1450 682 b 1403 796 1450 726 1435 764 b 1290 843 1371 828 1333 843 l 325 843 b 213 796 282 843 244 828 b 165 682 181 764 165 726 l 165 188 l 500 525 b 556 525 515 542 540 540 l 908 183 b 928 183 915 176 922 176 l 1108 365 b 1164 367 1124 382 1147 382 l 1450 104 m 910 722 b 1061 722 951 765 1018 765 b 1061 569 1104 679 1104 613 b 910 569 1018 526 951 526 b 910 722 868 613 868 679 "},"M":{"ha":1440,"x_min":0,"x_max":0,"o":"m 535 -211 l 535 768 l 906 904 l 906 -75 m 1301 -174 b 1268 -199 1301 -196 1289 -206 l 932 -75 l 932 904 l 1271 781 b 1301 735 1292 774 1301 758 m 139 867 b 172 892 139 889 151 899 l 508 768 l 508 -211 l 169 -87 b 139 -42 149 -81 139 -65 "},"N":{"ha":1342,"x_min":0,"x_max":0,"o":"m 632 894 b 710 896 658 907 683 908 l 1181 669 b 1181 601 1210 654 1210 614 l 721 381 b 621 381 688 365 654 365 l 161 601 b 161 669 132 617 132 654 m 1181 378 b 1181 310 1210 363 1210 322 l 721 89 b 621 89 688 74 654 74 l 161 310 b 161 378 132 322 132 363 l 361 474 l 621 349 b 721 349 654 333 688 333 l 981 474 m 1181 88 b 1181 19 1210 72 1210 32 l 721 -201 b 621 -201 688 -217 654 -217 l 161 19 b 161 88 132 35 132 75 l 361 183 l 621 58 b 721 58 654 43 688 43 l 981 183 "},"O":{"ha":1385,"x_min":0,"x_max":0,"o":"m 506 513 b 599 783 522 622 553 713 b 768 896 643 854 700 892 l 768 482 b 506 513 678 483 590 494 m 794 896 b 965 783 863 892 919 854 b 1057 513 1010 713 1040 622 b 794 482 972 494 885 483 m 282 582 b 656 882 354 733 490 844 b 479 518 567 819 508 697 b 282 582 411 535 344 556 m 1083 518 b 907 882 1054 697 996 819 b 1281 582 1072 844 1208 733 b 1083 518 1221 558 1154 536 m 271 128 b 271 558 211 271 211 415 b 475 492 339 531 407 508 b 475 193 463 392 463 292 b 271 128 410 178 342 156 m 1088 193 b 1088 492 1100 293 1100 393 b 1292 558 1156 508 1224 531 b 1292 128 1351 415 1351 271 b 1088 193 1221 156 1153 178 m 501 199 b 501 486 490 294 490 390 b 768 456 589 468 678 457 l 768 229 b 501 199 683 229 594 219 m 794 456 b 1061 486 885 457 974 468 b 1061 199 1072 390 1072 294 b 794 229 968 219 879 229 m 768 -211 b 599 -97 700 -207 643 -168 b 506 172 553 -26 522 64 b 768 203 597 193 685 203 m 1057 172 b 965 -97 1040 64 1010 -26 b 794 -211 919 -168 863 -207 l 794 203 b 1057 172 878 203 965 193 m 479 167 b 656 -197 506 -10 565 -132 b 281 103 493 -160 353 -49 b 479 167 354 132 419 153 m 1281 103 b 907 -197 1210 -49 1072 -160 b 1083 167 997 -133 1056 -12 b 1281 103 1143 153 1210 132 "},"P":{"ha":1392,"x_min":0,"x_max":0,"o":"m 1069 915 b 1200 861 1121 915 1164 897 b 1253 732 1235 825 1253 782 l 1253 -37 b 1200 -168 1253 -89 1235 -132 b 1069 -221 1164 -203 1121 -221 l 322 -221 b 193 -168 272 -221 229 -203 b 139 -37 157 -132 139 -89 l 139 732 b 193 861 139 782 157 825 b 322 915 229 897 272 915 m 397 758 b 286 758 365 790 318 790 b 286 647 254 726 254 679 b 397 647 318 615 365 615 b 397 758 429 679 429 726 m 1029 782 b 949 703 985 782 949 746 b 1029 624 949 660 985 624 b 1108 703 1072 624 1108 660 b 1029 782 1108 746 1072 782 m 397 519 b 286 519 365 551 318 551 b 286 408 254 488 254 440 b 397 408 318 376 365 376 b 397 519 429 440 429 488 m 1029 543 b 949 464 985 543 949 507 b 1029 385 949 421 985 385 b 1108 464 1072 385 1108 421 b 1029 543 1108 507 1072 543 m 397 288 b 263 231 349 336 263 303 b 342 151 263 188 299 151 b 421 231 385 151 421 188 b 397 288 421 253 413 272 m 1029 311 b 949 231 985 311 949 275 b 1029 151 949 188 985 151 b 1108 231 1072 151 1108 188 b 1029 311 1108 275 1072 311 m 397 51 b 286 51 365 83 318 83 b 286 -60 254 19 254 -28 b 397 -60 318 -92 365 -92 b 397 51 429 -28 429 19 m 1029 75 b 949 -4 985 75 949 39 b 1029 -83 949 -47 985 -83 b 1108 -4 1072 -83 1108 -47 b 1029 75 1108 39 1072 75 "},"Q":{"ha":1289,"x_min":0,"x_max":0,"o":"m 296 836 b 288 843 290 836 288 839 l 288 854 b 296 863 288 860 290 863 b 899 611 528 863 742 771 b 1150 8 1058 454 1150 240 b 1142 0 1150 3 1147 0 l 1131 0 b 1124 8 1126 0 1124 3 b 881 593 1124 226 1036 438 b 296 836 725 749 517 835 m 821 8 b 813 0 821 3 818 0 l 801 0 b 794 8 797 0 794 3 b 647 361 794 146 746 263 b 296 507 550 457 433 506 b 288 514 290 507 288 510 l 288 525 b 296 533 288 531 290 533 b 667 379 440 533 564 482 b 821 8 769 275 821 151 m 139 8 b 296 164 139 94 210 164 b 451 8 382 164 451 94 b 296 -149 451 -79 382 -149 b 139 8 210 -149 139 -79 "},"R":{"ha":1746,"x_min":0,"x_max":0,"o":"m 165 497 b 156 497 163 493 160 493 l 147 506 b 147 517 143 510 143 513 b 878 814 347 713 610 815 b 1610 517 1149 815 1410 713 b 1610 506 1614 513 1614 510 l 1601 497 b 1592 497 1597 493 1594 493 b 878 788 1396 688 1140 789 b 165 497 617 789 361 688 m 1339 244 b 1349 244 1343 242 1346 242 l 1358 253 b 1357 264 1361 257 1361 260 b 1053 436 1271 349 1169 406 b 704 436 936 467 819 467 b 400 264 588 406 486 349 b 399 253 396 260 396 257 l 408 244 b 418 244 411 242 414 242 b 879 431 544 368 699 431 b 1339 244 1058 431 1213 368 m 711 -28 b 882 33 760 13 817 33 b 1053 -28 947 33 1004 13 b 1056 -49 1061 -33 1063 -40 l 893 -211 b 872 -211 886 -218 879 -218 l 710 -50 b 711 -28 703 -43 703 -35 "},"S":{"ha":961,"x_min":0,"x_max":0,"o":"m 825 151 b 483 -196 819 -76 650 -201 b 142 151 317 -201 147 -76 b 197 397 140 217 158 299 b 315 647 236 496 275 579 b 426 825 354 715 392 775 b 538 825 461 874 506 874 b 769 396 606 729 692 592 b 825 151 808 297 826 217 "},"T":{"ha":1456,"x_min":0,"x_max":0,"o":"m 139 364 b 324 797 139 549 213 704 b 728 942 433 890 579 942 b 1133 797 876 942 1022 890 b 1317 364 1243 704 1317 549 l 1317 76 b 1235 -153 1317 -14 1289 -90 b 1018 -256 1181 -215 1108 -249 b 974 -215 994 -257 974 -239 l 974 367 b 1018 408 974 390 994 410 b 1290 214 1144 399 1244 329 l 1290 364 b 1114 778 1290 542 1219 689 b 728 915 1008 867 868 915 b 342 778 588 915 447 867 b 165 364 236 689 165 542 l 165 214 b 436 408 211 329 313 399 b 481 367 460 410 481 390 l 481 -215 b 436 -256 481 -239 460 -257 b 221 -153 346 -249 275 -215 b 139 76 167 -90 139 -14 "},"U":{"ha":1393,"x_min":0,"x_max":0,"o":"m 139 394 b 314 808 139 571 208 719 b 697 946 418 896 557 946 b 1081 808 836 946 975 896 b 1254 394 1185 719 1254 571 l 1254 -87 b 1169 -325 1254 -179 1226 -258 b 963 -468 1113 -390 1043 -439 b 707 -512 882 -497 797 -512 b 621 -301 601 -519 543 -372 b 831 -389 689 -222 838 -282 b 790 -481 831 -426 817 -457 b 1228 -87 1007 -456 1228 -329 l 1228 -4 b 971 -192 1183 -106 1086 -179 b 925 -151 944 -196 925 -175 l 925 396 b 971 436 925 419 944 440 b 1228 249 1086 424 1183 350 l 1228 394 b 697 918 1228 743 963 918 b 165 394 431 918 165 743 l 165 249 b 422 436 210 350 307 424 b 468 396 449 440 468 419 l 468 -151 b 422 -192 468 -175 449 -196 b 221 -89 342 -183 275 -149 b 139 122 167 -29 139 42 "},"V":{"ha":1442,"x_min":0,"x_max":0,"o":"m 1290 589 b 1290 533 1307 574 1307 549 l 1061 325 b 1035 315 1054 318 1046 315 l 697 315 l 697 -258 b 690 -267 697 -264 694 -267 l 664 -267 b 657 -258 660 -267 657 -264 l 657 315 l 332 315 b 196 372 278 315 233 335 b 139 507 158 410 139 454 l 139 622 b 196 758 139 675 158 721 b 332 815 233 796 278 815 l 657 815 l 657 964 b 664 972 657 969 660 972 l 690 972 b 697 964 694 972 697 969 l 697 815 l 1035 815 b 1061 804 1044 815 1054 811 "},"W":{"ha":1569,"x_min":0,"x_max":0,"o":"m 1442 706 b 1442 665 1454 693 1454 679 l 1304 528 b 1283 519 1297 522 1290 519 l 482 519 b 363 640 417 519 363 574 l 363 731 b 482 851 363 797 417 851 l 846 851 l 846 964 b 853 972 846 969 849 972 l 879 972 b 886 964 883 972 886 969 l 886 851 l 1283 851 b 1304 843 1292 851 1299 849 m 1160 404 b 1283 279 1228 404 1283 347 l 1283 186 b 1160 63 1283 118 1228 63 l 886 63 l 886 -281 b 879 -289 886 -286 883 -289 l 853 -289 b 846 -281 849 -289 846 -286 l 846 63 l 329 63 b 308 71 321 63 314 65 l 167 213 b 167 254 154 225 154 239 l 308 396 b 329 404 314 401 321 404 "},"X":{"ha":1576,"x_min":0,"x_max":0,"o":"m 760 842 l 531 583 l 335 842 m 1243 842 l 1047 583 l 818 842 m 558 576 l 789 835 l 1018 576 m 139 576 l 308 832 l 503 576 m 1438 576 l 1075 576 l 1269 832 m 746 -160 l 721 -160 b 711 -154 715 -160 713 -158 l 143 550 l 519 550 m 806 -160 l 774 -160 l 547 550 l 1029 550 m 869 -154 b 858 -160 867 -158 863 -160 l 833 -160 l 1057 550 l 1435 550 "},"Y":{"ha":1371,"x_min":0,"x_max":0,"o":"m 299 731 b 685 890 406 838 533 890 b 1072 731 836 890 965 838 b 1232 344 1179 624 1232 496 b 1072 -43 1232 193 1179 64 b 685 -203 965 -150 836 -203 b 299 -43 533 -203 406 -150 b 139 344 192 65 139 193 b 299 731 139 496 192 624 m 389 106 b 397 57 379 88 382 71 b 446 47 411 42 428 39 l 793 217 b 813 236 801 221 808 228 l 982 583 b 974 633 990 601 988 618 b 924 640 958 647 942 650 l 578 472 b 557 451 568 468 561 461 m 685 417 b 613 344 646 417 613 383 b 685 272 613 304 646 272 b 757 344 725 272 757 304 b 685 417 757 383 725 417 "},"Z":{"ha":1343,"x_min":0,"x_max":0,"o":"m 982 878 b 1139 813 1043 878 1096 856 b 1204 654 1182 769 1204 717 l 1204 36 b 1139 -122 1204 -26 1182 -79 b 982 -187 1096 -165 1043 -187 l 363 -187 b 204 -122 300 -187 247 -165 b 139 36 161 -79 139 -26 l 139 654 b 204 813 139 717 161 769 b 363 878 247 856 300 878 m 592 557 b 599 564 596 557 599 560 l 599 576 b 592 583 599 581 596 583 l 465 583 l 465 710 b 458 717 465 714 463 717 l 446 717 b 439 710 442 717 439 714 l 439 583 l 313 583 b 306 576 308 583 306 581 l 306 564 b 313 557 306 560 308 557 l 439 557 l 439 431 b 446 424 439 426 442 424 l 458 424 b 465 431 463 424 465 426 l 465 557 m 1031 557 b 1038 564 1035 557 1038 560 l 1038 576 b 1031 583 1038 581 1035 583 l 778 583 b 769 576 772 583 769 581 l 769 564 b 778 557 769 560 772 557 m 568 225 b 568 236 572 229 572 232 l 560 244 b 550 244 557 249 554 249 l 453 146 l 354 244 b 344 244 350 249 347 249 l 336 236 b 336 225 332 232 332 229 l 433 128 l 336 29 b 336 19 332 26 332 24 l 344 11 b 354 11 347 7 350 7 l 453 108 l 550 11 b 560 11 554 7 557 7 l 568 19 b 568 29 572 24 572 26 l 471 128 m 1031 183 b 1038 190 1035 183 1038 186 l 1038 203 b 1031 210 1038 207 1035 210 l 778 210 b 769 203 772 210 769 207 l 769 190 b 778 183 769 186 772 183 m 1031 46 b 1038 53 1035 46 1038 49 l 1038 64 b 1031 72 1038 69 1035 72 l 778 72 b 769 64 772 72 769 69 l 769 53 b 778 46 769 49 772 46 "},"a":{"ha":1507,"x_min":0,"x_max":0,"o":"m 1190 783 b 1299 746 1232 783 1268 771 l 865 308 b 754 264 836 279 799 264 b 642 308 708 264 671 279 l 208 746 b 317 783 240 771 276 783 m 185 -44 b 139 75 154 -11 139 29 l 139 604 b 189 728 139 653 156 694 l 569 343 m 1318 728 b 1368 604 1351 694 1368 653 l 1368 75 b 1322 -44 1368 31 1353 -10 l 936 343 m 624 290 b 754 238 658 254 703 236 b 885 290 806 238 850 256 l 918 324 l 1303 -62 b 1190 -103 1271 -89 1233 -103 l 317 -103 b 204 -62 274 -103 236 -89 l 589 325 "},"b":{"ha":1415,"x_min":0,"x_max":0,"o":"m 860 156 l 829 186 b 707 235 797 218 756 235 b 583 185 657 235 615 218 l 554 157 l 203 513 l 604 917 b 811 918 660 974 754 974 l 1213 513 m 139 381 b 183 493 139 424 154 461 l 536 139 l 181 -219 b 139 -110 153 -189 139 -153 m 878 138 l 1231 493 b 1276 381 1261 461 1276 424 l 1276 -110 b 1233 -219 1276 -151 1263 -187 m 601 167 b 707 208 629 194 664 208 b 811 167 749 208 783 194 l 1215 -237 b 1111 -274 1186 -261 1151 -274 l 303 -274 b 200 -237 264 -274 229 -261 "},"c":{"ha":1417,"x_min":0,"x_max":0,"o":"m 606 919 b 811 919 668 985 746 985 l 915 814 l 503 814 m 982 788 b 1022 747 1006 788 1022 771 l 1022 319 l 860 157 l 831 186 b 707 236 799 219 757 236 b 583 186 657 236 615 219 l 556 158 l 393 321 l 393 747 b 433 788 393 771 410 788 m 1049 681 l 1214 514 l 1049 347 m 367 349 l 203 514 l 367 679 m 536 140 l 181 -218 b 139 -108 153 -186 139 -149 l 139 382 b 185 494 139 425 154 463 m 1232 494 b 1278 382 1263 463 1278 425 l 1278 -108 b 1235 -218 1278 -150 1264 -186 l 879 139 m 603 168 b 707 210 631 196 665 210 b 811 168 749 210 783 196 l 1215 -236 b 1113 -272 1186 -260 1153 -272 l 304 -272 b 200 -236 267 -272 232 -260 "},"d":{"ha":1247,"x_min":0,"x_max":0,"o":"m 1115 689 b 1042 158 1132 513 1107 328 b 678 -210 976 -12 846 -153 b 594 -210 651 -219 624 -219 b 229 156 424 -156 294 -15 b 157 689 164 326 140 513 b 200 731 161 721 171 729 b 418 789 267 732 339 751 b 607 919 497 826 560 869 b 665 919 629 943 643 943 b 854 789 713 869 775 826 b 1072 731 933 751 1006 732 b 1115 689 1101 729 1111 721 m 857 558 b 854 568 858 563 858 567 l 844 574 b 835 571 840 575 836 575 l 638 194 b 617 194 632 188 621 188 b 556 290 606 213 585 244 b 486 397 525 336 501 372 b 476 400 483 401 481 403 l 467 394 b 464 383 463 392 463 388 l 594 181 b 660 183 610 154 647 157 "},"e":{"ha":1247,"x_min":0,"x_max":0,"o":"m 1115 689 b 1042 158 1132 513 1107 328 b 678 -210 976 -12 849 -153 b 594 -210 651 -219 624 -219 b 229 156 424 -156 294 -15 b 157 689 164 326 140 513 b 200 731 161 721 171 729 b 418 789 267 732 339 751 b 607 919 497 826 560 869 b 665 919 629 943 643 943 b 854 789 713 869 775 826 b 1072 731 933 751 1006 732 b 1115 689 1101 729 1111 721 m 790 188 b 801 188 794 183 797 183 l 810 196 b 810 206 814 200 814 203 l 654 361 l 810 518 b 810 528 814 521 814 524 l 801 536 b 790 536 797 540 794 540 l 635 381 l 479 536 b 469 536 476 540 474 540 l 461 528 b 461 518 457 524 457 521 l 617 361 l 461 206 b 461 196 457 203 457 200 l 469 188 b 479 188 474 183 476 183 l 635 343 "},"f":{"ha":1582,"x_min":0,"x_max":0,"o":"m 1418 204 b 1443 88 1435 157 1443 118 b 1363 -107 1443 11 1417 -53 b 1168 -187 1308 -161 1244 -187 b 974 -107 1092 -187 1028 -161 b 892 88 919 -53 892 11 b 893 103 892 94 892 99 b 689 103 831 138 751 138 b 690 88 690 99 690 94 b 610 -107 690 11 664 -53 b 414 -187 556 -161 490 -187 b 219 -107 338 -187 274 -161 b 139 88 165 -53 139 11 b 164 204 139 114 147 153 l 340 701 b 450 840 368 782 400 819 b 564 872 486 856 508 861 b 585 876 569 874 579 876 b 593 871 589 878 592 876 l 596 858 b 590 850 596 854 594 851 b 525 838 578 849 535 840 b 497 831 519 836 510 833 b 451 813 471 824 471 821 b 365 693 414 793 390 757 l 219 282 b 414 363 274 336 338 363 b 594 297 482 363 543 340 b 686 131 646 253 676 197 b 896 131 751 164 831 164 b 989 297 906 197 938 253 b 1168 363 1040 340 1100 363 b 1363 282 1244 363 1308 336 l 1217 693 b 1132 813 1192 757 1168 793 b 1085 831 1113 821 1111 824 b 1058 838 1072 833 1063 836 b 992 850 1047 840 1004 849 b 986 858 988 851 986 854 l 989 871 b 997 876 990 876 993 878 b 1144 835 1074 861 1124 847 b 1242 701 1186 813 1218 768 "},"g":{"ha":1408,"x_min":0,"x_max":0,"o":"m 632 835 b 896 892 708 911 796 929 b 1228 722 1042 835 1153 779 b 1326 568 1301 665 1333 614 b 1139 464 1319 507 1232 474 b 988 431 1093 458 1042 447 b 861 361 933 414 890 390 l 747 246 b 678 121 718 217 694 175 b 646 -31 661 67 650 15 b 540 -219 635 -124 601 -210 b 386 -119 494 -225 443 -192 b 218 211 329 -46 274 64 b 274 476 179 313 197 400 m 685 735 b 685 660 664 714 664 681 b 760 660 706 639 739 639 b 760 735 781 681 781 714 b 685 735 739 756 706 756 m 840 735 b 840 660 819 714 819 681 b 915 660 861 639 894 639 b 915 735 936 681 936 714 b 840 735 894 756 861 756 m 685 586 b 685 511 664 565 664 532 b 760 511 706 490 739 490 b 760 586 781 532 781 565 b 685 586 739 607 706 607 m 840 586 b 840 511 819 565 819 532 b 915 511 861 490 894 490 b 915 586 936 532 936 565 b 840 586 894 607 861 607 m 457 314 l 378 235 b 378 224 374 231 374 228 l 386 215 b 396 215 390 214 393 214 l 476 296 l 556 215 b 565 215 560 213 563 213 l 575 224 b 575 235 578 228 578 231 l 494 314 l 575 394 b 575 404 578 397 578 400 l 565 413 b 556 413 563 417 560 417 l 476 333 l 396 413 b 386 413 393 415 390 415 l 378 404 b 378 394 374 401 374 399 "},"h":{"ha":1301,"x_min":0,"x_max":0,"o":"m 697 -118 b 567 -171 661 -153 618 -171 b 438 -118 515 -171 472 -153 l 192 128 b 139 257 157 163 139 206 b 192 388 139 308 157 351 l 632 828 b 701 853 653 849 663 853 l 1113 854 b 1163 804 1142 854 1163 833 l 1163 392 b 1136 321 1163 353 1158 343 m 1006 597 b 899 704 1006 657 956 704 b 792 597 842 704 792 657 b 899 492 792 540 839 492 b 1006 597 958 492 1006 540 "},"i":{"ha":1528,"x_min":0,"x_max":0,"o":"m 764 888 b 1176 774 903 888 1051 846 b 1389 425 1301 700 1389 571 b 1176 78 1389 279 1301 150 b 764 -37 1051 4 903 -37 b 640 -28 731 -37 689 -35 b 374 -200 586 -118 497 -176 b 349 -167 350 -206 336 -189 b 393 53 389 -93 404 -19 b 139 425 243 140 139 268 b 353 774 139 571 226 700 b 764 888 479 846 626 888 "},"j":{"ha":1847,"x_min":0,"x_max":0,"o":"m 574 71 b 344 -79 528 -7 451 -57 b 324 -49 321 -83 313 -71 b 361 140 358 14 371 78 b 139 465 229 217 139 328 b 500 842 136 663 318 796 b 1042 768 681 892 874 865 b 1176 290 1210 681 1288 449 b 683 63 1075 136 857 63 b 574 71 660 63 624 65 m 1556 -156 b 1538 -179 1563 -171 1554 -181 b 1353 -56 1451 -160 1390 -118 b 901 72 1185 -78 1018 -39 b 1154 222 1003 104 1086 154 b 1254 465 1221 289 1254 369 b 1229 593 1254 511 1246 554 b 1538 525 1324 600 1438 575 b 1708 267 1636 474 1708 378 b 1525 1 1708 154 1632 63 b 1556 -156 1518 -53 1528 -104 "},"k":{"ha":1278,"x_min":0,"x_max":0,"o":"m 1132 776 b 1139 769 1136 776 1139 774 l 1139 757 b 1132 750 1139 753 1136 750 l 1033 750 l 974 -31 b 907 -183 969 -90 947 -142 b 758 -246 867 -225 818 -246 l 519 -246 b 372 -183 461 -246 413 -225 b 304 -31 332 -142 308 -90 l 243 750 l 147 750 b 139 757 142 750 139 753 l 139 769 b 147 776 139 774 142 776 l 463 776 l 463 897 b 506 940 463 921 482 940 l 774 940 b 815 897 796 940 815 921 l 815 776 m 489 776 l 789 776 l 789 897 b 774 914 789 908 783 914 l 506 914 b 489 897 494 914 489 908 "},"l":{"ha":1426,"x_min":0,"x_max":0,"o":"m 1289 383 b 1247 340 1290 360 1274 340 l 738 340 l 738 -67 b 688 -189 738 -114 721 -154 b 564 -239 653 -222 613 -239 b 442 -189 515 -239 475 -222 b 390 -67 407 -154 390 -114 b 399 -58 390 -61 393 -58 l 410 -58 b 417 -67 414 -58 417 -61 b 564 -212 417 -146 482 -212 b 710 -67 643 -212 710 -149 l 710 340 l 182 340 b 140 383 158 340 139 360 b 226 640 143 478 172 564 b 435 817 281 717 350 776 b 701 882 518 857 607 879 l 701 981 b 708 988 701 985 704 988 l 721 988 b 728 981 725 988 728 985 l 728 882 b 1203 640 917 876 1093 794 b 1289 383 1257 564 1286 478 "},"m":{"ha":1401,"x_min":0,"x_max":0,"o":"m 382 692 l 382 886 b 422 926 382 910 399 926 l 979 926 b 1019 886 1003 926 1019 910 l 1019 692 m 139 482 b 193 613 139 533 157 576 b 322 665 228 647 271 665 l 1079 665 b 1210 613 1131 665 1174 647 b 1263 482 1244 576 1263 533 l 1263 53 b 1249 39 1263 43 1258 39 l 1046 39 l 1046 301 l 356 301 l 356 39 l 153 39 b 139 53 143 39 139 43 m 1018 582 b 957 521 985 582 957 556 b 1018 460 957 486 985 460 b 1081 521 1053 460 1081 486 b 1018 582 1081 556 1053 582 m 422 -224 b 382 -182 399 -224 382 -206 l 382 274 l 1019 274 l 1019 -182 b 979 -224 1019 -206 1003 -224 "},"n":{"ha":1132,"x_min":0,"x_max":0,"o":"m 279 -250 b 272 -242 275 -250 272 -247 l 272 -231 b 279 -222 272 -225 275 -222 l 464 -222 l 464 -21 b 219 47 378 -19 296 4 b 217 58 215 50 215 54 l 222 68 b 233 71 224 72 228 74 b 604 22 350 3 474 -14 b 901 251 735 57 833 133 b 950 622 969 368 985 492 b 722 918 914 754 838 853 b 719 928 718 921 717 924 l 725 939 b 735 940 728 943 731 943 b 975 629 858 869 939 765 b 925 238 1013 492 996 361 b 611 -4 854 114 749 33 b 490 -21 567 -15 526 -21 l 490 -222 l 676 -222 b 683 -231 681 -222 683 -225 l 683 -242 b 676 -250 683 -247 681 -250 m 478 833 b 718 735 572 833 653 800 b 817 494 783 669 817 589 b 718 254 817 400 783 319 b 478 156 653 189 572 156 b 238 254 383 156 303 189 b 139 494 172 319 139 400 b 238 735 139 589 172 669 b 478 833 303 800 383 833 "},"o":{"ha":1501,"x_min":0,"x_max":0,"o":"m 349 792 b 219 739 297 792 254 774 b 165 608 183 703 165 660 l 165 524 b 158 517 165 519 163 517 l 146 517 b 139 524 142 517 139 519 l 139 608 b 201 757 139 665 160 715 b 349 818 242 797 292 818 l 433 818 b 440 811 438 818 440 815 l 440 799 b 433 792 440 794 438 792 l 349 792 m 1153 792 b 1283 739 1204 792 1247 774 b 1336 608 1318 703 1336 660 l 1336 524 b 1344 517 1336 519 1339 517 l 1356 517 b 1363 524 1360 517 1363 519 l 1363 608 b 1301 757 1363 665 1342 715 b 1153 818 1261 797 1211 818 l 1068 818 b 1061 811 1064 818 1061 815 l 1061 799 b 1068 792 1061 794 1064 792 l 1153 792 m 349 -119 b 219 -67 297 -119 254 -101 b 165 64 183 -31 165 13 l 165 149 b 158 157 165 154 163 157 l 146 157 b 139 149 142 157 139 154 l 139 64 b 201 -85 139 7 160 -43 b 349 -146 242 -125 292 -146 l 433 -146 b 440 -139 438 -146 440 -143 l 440 -126 b 433 -119 440 -122 438 -119 l 349 -119 m 1153 -119 b 1283 -67 1204 -119 1247 -101 b 1336 64 1318 -31 1336 13 l 1336 149 b 1344 157 1336 154 1339 157 l 1356 157 b 1363 149 1360 157 1363 154 l 1363 64 b 1301 -85 1363 7 1342 -43 b 1153 -146 1261 -125 1211 -146 l 1068 -146 b 1061 -139 1064 -146 1061 -143 l 1061 -126 b 1068 -119 1061 -122 1064 -119 l 1153 -119 "},"p":{"ha":1557,"x_min":0,"x_max":0,"o":"m 1235 711 b 1364 658 1285 711 1328 693 b 1418 528 1400 622 1418 579 l 1418 13 b 1364 -118 1418 -39 1400 -82 b 1235 -171 1328 -153 1285 -171 l 322 -171 b 193 -118 271 -171 228 -153 b 139 13 157 -82 139 -39 l 139 682 b 193 811 139 732 157 775 b 322 865 228 847 271 865 l 581 865 b 771 711 681 865 719 818 "},"q":{"ha":1653,"x_min":0,"x_max":0,"o":"m 1533 235 b 1506 231 1533 214 1510 213 l 1471 390 b 1267 550 1449 485 1365 550 l 332 550 b 293 547 322 550 310 549 l 293 725 b 476 890 293 825 375 890 l 742 890 b 932 736 842 890 881 843 l 1347 736 b 1481 690 1401 736 1446 721 b 1531 575 1514 661 1531 624 m 433 -197 b 256 -58 349 -197 274 -142 l 164 338 b 332 524 138 453 214 524 l 1267 524 b 1444 385 1351 524 1426 468 l 1525 31 b 1492 -128 1538 -29 1526 -82 b 1347 -197 1457 -174 1408 -197 "},"r":{"ha":1538,"x_min":0,"x_max":0,"o":"m 322 821 b 374 856 329 844 347 856 l 1164 856 b 1215 821 1190 856 1208 844 l 1393 311 l 1007 311 b 967 275 986 311 971 296 b 897 146 960 219 938 176 b 769 100 857 115 815 100 b 640 146 724 100 681 115 b 571 275 600 176 578 219 b 531 311 567 296 551 311 l 144 311 m 1399 -111 b 1356 -154 1399 -140 1385 -154 l 182 -154 b 139 -111 153 -154 139 -140 l 139 285 l 531 285 b 544 272 540 285 544 281 b 831 83 560 115 714 51 b 993 272 913 100 982 172 b 1007 285 993 281 997 285 l 1399 285 "},"s":{"ha":1358,"x_min":0,"x_max":0,"o":"m 683 735 l 446 735 l 446 775 b 493 885 446 818 461 854 b 603 931 524 915 560 931 l 963 931 l 963 713 b 1001 674 963 692 981 674 l 1219 674 l 1219 126 b 1063 -29 1219 42 1150 -29 l 938 -29 l 938 481 m 1001 700 b 989 713 993 700 989 704 l 989 921 l 1210 700 m 911 -96 b 756 -251 911 -183 840 -251 l 294 -251 b 139 -96 210 -251 139 -181 l 139 553 b 294 708 139 638 210 708 l 661 708 l 661 496 b 699 458 661 475 678 458 l 911 458 m 896 485 l 699 485 b 688 496 692 485 688 489 l 688 693 "},"t":{"ha":1325,"x_min":0,"x_max":0,"o":"m 1313 -79 b 1303 -125 1321 -99 1318 -114 b 846 -118 1182 -211 1029 -208 b 547 101 739 -65 639 8 b 336 392 454 194 385 292 b 329 849 246 575 243 728 b 375 858 340 864 356 867 b 610 619 474 813 553 733 b 606 578 617 604 615 590 l 542 493 b 538 451 532 479 531 465 b 683 238 576 367 625 296 b 906 83 751 169 826 118 b 947 88 919 76 933 78 l 1032 151 b 1074 156 1044 161 1058 163 b 1313 -79 1188 99 1267 19 m 838 399 b 838 410 833 403 833 406 l 1210 782 l 894 782 b 886 790 889 782 886 785 l 886 801 b 894 808 886 806 889 808 l 1233 808 b 1256 786 1249 808 1256 801 l 1256 447 b 1249 440 1256 443 1253 440 l 1236 440 b 1229 447 1232 440 1229 443 l 1229 764 l 856 390 b 846 390 851 386 849 386 "},"u":{"ha":1325,"x_min":0,"x_max":0,"o":"m 1313 756 b 1074 521 1267 657 1188 578 b 1032 525 1058 514 1044 515 l 947 589 b 906 593 933 599 919 600 b 683 439 826 558 751 507 b 538 225 625 381 576 310 b 542 183 531 211 532 197 l 606 99 b 610 57 615 86 617 72 b 375 -182 553 -57 474 -136 b 329 -172 356 -190 340 -187 b 336 285 243 -51 246 101 b 547 575 385 385 454 482 b 846 794 639 668 739 742 b 1303 801 1029 885 1182 888 b 1313 756 1318 790 1321 775 m 1244 -129 b 1235 -129 1242 -133 1239 -133 l 861 244 l 861 -72 b 854 -79 861 -76 858 -79 l 842 -79 b 835 -72 838 -79 835 -76 l 835 267 b 857 289 835 282 842 289 l 1196 289 b 1204 282 1201 289 1204 286 l 1204 271 b 1196 263 1204 265 1201 263 l 881 263 l 1253 -110 b 1253 -121 1257 -114 1257 -117 "},"v":{"ha":1325,"x_min":0,"x_max":0,"o":"m 1313 756 b 1074 521 1267 657 1188 578 b 1032 525 1058 514 1044 515 l 947 589 b 906 593 933 599 919 600 b 683 439 826 558 751 507 b 538 225 625 381 576 310 b 542 183 531 211 532 197 l 606 99 b 610 57 615 86 617 72 b 375 -182 553 -57 474 -136 b 329 -172 356 -190 340 -187 b 336 285 243 -51 246 101 b 547 575 385 385 454 482 b 846 794 639 668 739 742 b 1303 801 1029 885 1182 888 b 1313 756 1318 790 1321 775 "},"w":{"ha":1603,"x_min":0,"x_max":0,"o":"m 1422 649 b 1463 599 1450 649 1469 625 l 1349 179 b 1146 28 1325 89 1240 28 l 810 28 b 604 192 704 28 622 90 l 482 811 b 333 926 465 893 418 926 l 146 926 b 139 935 142 926 139 929 l 139 946 b 146 954 139 951 142 954 l 333 954 b 508 817 432 954 490 908 l 540 649 m 749 -96 b 858 -96 779 -65 828 -65 b 858 -204 889 -126 889 -175 b 749 -204 828 -233 779 -233 b 749 -96 718 -175 718 -126 m 1099 -96 b 1229 -150 1147 -46 1229 -82 b 1153 -226 1229 -190 1193 -226 b 1099 -96 1085 -226 1049 -144 "},"x":{"ha":1604,"x_min":0,"x_max":0,"o":"m 1424 649 b 1464 599 1450 649 1471 622 l 1349 179 b 1146 28 1325 86 1242 28 l 810 28 b 604 192 706 28 625 90 l 483 811 b 335 926 467 893 419 926 l 147 926 b 139 935 142 926 139 929 l 139 946 b 147 954 139 951 142 954 l 335 954 b 508 817 433 954 490 908 l 542 649 m 1296 676 l 750 676 l 913 840 b 1135 839 994 922 1053 921 m 749 -96 b 881 -150 796 -47 881 -82 b 803 -226 881 -193 846 -226 b 726 -150 763 -226 726 -190 b 749 -96 726 -129 733 -111 m 1099 -96 b 1208 -96 1129 -65 1178 -65 b 1208 -204 1239 -126 1239 -175 b 1099 -204 1178 -233 1129 -233 b 1099 -96 1068 -175 1068 -126 "},"y":{"ha":1360,"x_min":0,"x_max":0,"o":"m 424 742 b 417 750 419 742 417 744 b 556 1064 417 879 463 985 b 567 1064 560 1067 564 1067 l 574 1054 b 574 1044 578 1050 578 1047 b 443 750 486 969 443 871 b 436 742 443 744 440 742 m 599 742 b 592 750 594 742 592 744 b 700 994 592 850 628 932 b 711 994 704 999 707 999 l 718 986 b 718 975 722 982 722 979 b 618 750 651 918 618 843 b 611 742 618 744 615 742 m 999 535 b 999 85 1294 535 1294 85 l 929 85 l 929 -61 b 878 -185 929 -110 913 -150 b 754 -236 843 -219 803 -236 l 314 -236 b 190 -185 265 -236 225 -219 b 139 -61 156 -150 139 -110 l 139 628 b 181 669 139 650 157 669 l 888 669 b 929 628 911 669 929 650 l 929 535 m 999 111 b 1144 174 1061 111 1110 132 b 1196 310 1179 214 1196 260 b 1144 446 1196 358 1179 404 b 999 507 1110 486 1061 507 l 929 507 l 929 111 "},"z":{"ha":1464,"x_min":0,"x_max":0,"o":"m 1328 -172 b 1286 -221 1332 -199 1313 -221 l 183 -221 b 142 -172 157 -221 138 -199 l 233 389 b 439 565 253 507 321 565 l 494 565 l 494 675 b 975 675 494 990 975 990 l 975 565 l 1031 565 b 1236 389 1149 565 1217 507 m 522 565 l 949 565 l 949 675 b 672 878 951 843 793 911 b 522 675 589 860 522 782 m 549 397 b 469 397 526 418 490 418 b 469 319 447 375 447 342 b 549 397 517 265 601 351 m 1000 319 b 961 413 1035 354 1011 413 b 907 358 932 413 907 388 b 1000 319 907 308 965 285 "}}}
